<svg id="Layer_1" data-name="Layer 1" xmlns="http://www.w3.org/2000/svg" viewBox="0 0 255 78"><defs><style>.cls-1{fill:#fff;}</style></defs><path class="cls-1" d="M103,78Q52.28,78,1.54,78C.24,78,0,77.76,0,76.46.06,63,0,49.49,0,36c1,.83,2,1.63,3,2.48s1,.27,1-.52a7.44,7.44,0,0,1,3.23-5.61A38.39,38.39,0,0,1,12.87,29a79,79,0,0,1,16.88-6.24,6.79,6.79,0,0,0,1.06-.5,3.64,3.64,0,0,1,.07,1.34Q30,25.78,29,27.85c-2.51,5.14-3.87,10.7-6,16-.79,2-.92,4.4-2.12,6.07-1.54,2.14-.48,4.59-1.7,6.84a8.11,8.11,0,0,0,.09,6.73A12.17,12.17,0,0,0,25.88,69c1.3.46,2.27-.21,2.12-1.62-.34-3.06-.89-6.08,0-9.15.61-2.08,1-4.22,1.63-6.31,1.22-4.13,2.75-8.15,4.31-12.17,2.44-6.32,5.42-12.39,8-18.62.48-1.16,1-1.94,2.31-2.08,4.25-.46,8.35-1.81,12.65-2,1.54-.08,3-.76,4.58-.92s3.34.1,5-.08a13.32,13.32,0,0,0,4-1.06c1.61-.73,1.61-2.36,1.44-3.85A3.65,3.65,0,0,0,69.19,8c-5.42-.66-10.68,1.07-16,1a3.23,3.23,0,0,0-.89.26,73.92,73.92,0,0,1-10.87,2.57c-5,.89-9.63,2.56-14.44,3.8a123.09,123.09,0,0,0-12.19,4.27C7.43,22.65,4.13,24.63,0,30c0-9.49,0-19,0-28.47C0,.24.24,0,1.54,0,13.37.07,25.2,0,37,0H250.46c1.17,0,2.34.07,3.5,0,.87-.08,1,.16,1,1-.06,4.16,0,8.32,0,12.49q0,31.46,0,62.93c0,1.3-.24,1.54-1.54,1.54-16.16-.06-32.32,0-48.48,0a31.24,31.24,0,0,0,9.25-11.56c2.08-4.15,3.53-8.54,5.49-12.72.49-1,.34-2.37,1.83-.66a14.51,14.51,0,0,0,11.92,5.08,9.87,9.87,0,0,0,8.17-4.41c1.79-2.41,3.32-5,5.32-7.28,1.54-1.76,3.31-3.75,3.73-5.89.33-1.72,2.46-3.33.93-5.36-1.18,1.07-2.37,2.14-3.53,3.23-.73.68-1.76,1.29-2.06,2.14-1,2.81-4.15,3.89-5.25,6.32-1.32,2.92-4.17,3.82-6.15,5.81s-6.65,1.82-8.39.1c-1.4-1.39-1.82-5-.77-6.76.69-1.14,1.6-1.19,2.77-.26s1.72,2.18,3.55,2.34c3.3.3,5-1.73,6.1-4,2.41-5,5.31-9.74,6.17-15.44.68-4.53-.37-6.84-4.62-7.61a6.75,6.75,0,0,1-2.32-.41c-2.63-1.68-4.65-.08-6.45,1.32A32.66,32.66,0,0,0,225,27.55c-2.1,2.69-4.12,5.51-5,8.89A26.69,26.69,0,0,0,219,41a37.25,37.25,0,0,0,0,5.49A10,10,0,0,1,216.57,54c-1.78,2.11-2.92,4.75-4.32,7.18-1.78,3.09-3.51,6.2-5.34,9.27a1.43,1.43,0,0,1-1.25.43c-.3-.08-.58-.67-.66-1.07-.39-2,.49-3.74,1-5.58,1.14-4.36,2.12-8.76,3.37-13.09,1.06-3.7,2.36-7.34,3.64-11a183.81,183.81,0,0,1,7.87-19.73c1.2-2.46,2.89-3.11,5.08-3.41a33.6,33.6,0,0,1,4.49,0c1.33,0,2.67-.05,4,0a2.4,2.4,0,0,0,2.51-1.86c.32-1-1.09-2-2.67-2.15-.66,0-1.33,0-2,0-2.16,0-4.33-.11-6.49,0-1.67.12-2-.64-1.81-2,0-.32,0-.67,0-1,.14-1.06-.48-1.73-1-2.6-1.1-1.86-3.16-1.46-4.65-2.21-1.91-1-2.12,1.8-3,3-.34.46-.17,1.25-.41,1.82a12.38,12.38,0,0,1-2.78,4.36c-1.19,1.16-2.52.33-3.75.64-.9.22-1.78.55-2.69.72a20.47,20.47,0,0,1-2.35.17,16.65,16.65,0,0,1,1-1.75c.84-1.17,1.74-2.28,2.62-3.42s1.75-2.32.68-3.41c-1.2-1.24-2-3.28-4.09-3.26-1.24,0-2.78-.75-3.71.61a13.61,13.61,0,0,0-2.8,8.29c0,.78,1.1,1.51,1.65,2.29s.27,1.67-.65,1.74c-.5,0-1.1-.17-1.48,0-1.14.62-3.56-1.46-3.45,1.17.07,1.52,2.19.54,3.36.76A4.14,4.14,0,0,0,199,19c3.26-1.78,6.74-.67,10.11-.91,1.89-.14,2.51.91,1.62,2.72a109.74,109.74,0,0,0-5.77,15.1,28.66,28.66,0,0,1-3.86,8.35c-2.27,3-5.31,5.49-8,8.19a3,3,0,0,1-.7.42c-.12-.29-.37-.6-.33-.85a47.58,47.58,0,0,1,1.44-6.89c2.1-6,4.3-11.87,6.78-17.67a7.9,7.9,0,0,0,.75-3.18c0-2.17-1.28-3.59-3.72-4.23-1.9-.49-3.12.18-4.28,2.1-2.34,3.88-3.53,8.19-5,12.41-.89,2.52-1.18,5.3-3,7.47a15.62,15.62,0,0,1,0-3.49c1.29-5.3,1.34-6.35,0-10.67-1.51-4.77-8.51-7.72-12.3-4.72-3,2.38-6.08,4.92-7.94,8.56a31.58,31.58,0,0,1-4.27,6.19c-.49.57.21,2.19-1.29,1.66a6.43,6.43,0,0,1,.4-2.57c.31-.86,1.17-1.57,1.34-2.43,1.87-9.19,7.59-16.86,10.18-25.77.45-1.56,1.43-3,.54-4.46a7.41,7.41,0,0,0-5.09-3.25c-.9-.16-1.25.17-1.64,1.19-1.1,2.86-2.59,5.58-3.92,8.36-3.18,6.67-5.9,13.54-8.54,20.44-1.26,3.31-1.77,6.9-4.4,9.68-2.29,2.42-3.92,5.47-6.26,7.83a27.68,27.68,0,0,1-6.54,4.61c-3.61,2-6.53,1.07-7.76-2.24a9.32,9.32,0,0,1-.42-3.79,2.59,2.59,0,0,1,1.29-1.86c.48-.22,1.42.24,2,.63,1.16.8,1.77,2.13,3.63,2.18,3.21.1,4.8-1.8,6-4.15,2.46-5,5.57-9.71,6.07-15.46,2.11-1.58.53-3.16-.06-4.67-.71-1.83-2.63-2.09-4.18-2.74-.71-.3-1.82.17-2.39-.22-3-2.13-5.13-.21-7.19,1.52a39.75,39.75,0,0,0-4.94,4.94c-3.58,4.3-6,9.14-6.25,14.87-.1,2.66.5,5.46-.17,7.95-.62,2.3-2.58,4.22-3.83,6.38-2.33,4-4.13,8.42-7.19,12-.7.81-.24,3.33-2.23,2.36-.64-.31-.42-2.36-.59-3.62a.94.94,0,0,1,0-.5,34.74,34.74,0,0,0,2.06-7.65,50.5,50.5,0,0,1,2.16-7.58c3.54-9,5.4-18.68,10.07-27.29.36-.66.35-1.53.72-2.19,1-1.83,1.27-4.59,4.48-4,1.75-2,4-.71,6.08-1,1.64-.2,3.34.08,5-.19a2.34,2.34,0,0,0,1.34-1.81,2.83,2.83,0,0,0-1.32-1.87c-.46-.31-1.26-.15-1.92-.16-2.33,0-4.66,0-7,0s-2.55,0-2.63-2.62a5.67,5.67,0,0,0-1.1-3.07c-1.15-1.85-3.21-1.51-4.69-2.09-2.12-.82-2,2.37-3.2,3.47-.25.22.1,1-.06,1.45-1.19,3.51-2.78,4.65-6.66,4.87-.65,0-1.6-.17-1.89.17-1.08,1.29-2.46.61-3.69.84s-2.72.69-4.09,1a2.6,2.6,0,0,1-1.39-.24c-3.68-1.61-6.9-1.32-9.55,2-.82,1-2.11,1.76-2.76,2.87a9.11,9.11,0,0,0-1.36,6.44,22.75,22.75,0,0,0,3.15,8.19,2.13,2.13,0,0,1-.55,3c-.77.56-1.58,1.06-2.3,1.68-3.89,3.3-8.66,5.7-11,10.59a1.33,1.33,0,0,1-1.28.33,1.35,1.35,0,0,1-.5-1.21c.44-1.63,1-3.24,1.57-4.83,2-5.34,4.14-10.62,6-16,1.53-4.57,0-8.52-5-7.84a2.33,2.33,0,0,0-1.54.71,20,20,0,0,0-1.25,3c-1-.57-2-1.15-3-1.7-.82-.44-1.63-.87-2.48-1.24-5.57-2.38-6.5-2.68-11.35,1.72C51.34,28.68,48.06,33.73,45.06,39a14,14,0,0,0-1,12.72A9.14,9.14,0,0,0,49,56.83a9.48,9.48,0,0,0,6.37,0,7.55,7.55,0,0,0,3.78-4.21c1-2.27,2.68-4.22,4.11-6.28a.92.92,0,0,1,.84-.29c.36.16.94.59.9.81C64.52,49.29,66.23,51,67.05,53a9.08,9.08,0,0,0,5.67,4.86c1.84.66,3.72-.62,5-2.13.9-1.06,1.18-.15,1.81.23,3.61,2.16,7.61,2.37,11.64,2,1.57-.15,3.51-.21,3.87-2.48,4.38-4.28,3.6-9.22,1.67-14.21-1.07-2.79-1.1-3.84,1.06-5.45,3.16-2.34,6.45-4.51,9.71-6.72.23-.15.79-.19.93,0,.3.31.67.88.56,1.19-1.27,3.63-2.49,7.29-4,10.82-1.77,4.16-2.55,8.59-3.94,12.85-1.21,3.7-1.63,7.61-2.76,11.34-1.26,4.16.15,9.3,3,11.51C101.86,77.18,102.44,77.56,103,78Z" transform="translate(0 0)"/><path d="M103,78c-.57-.4-1.15-.78-1.71-1.21-2.88-2.21-4.29-7.35-3-11.51C99.4,61.51,99.82,57.6,101,53.9c1.39-4.26,2.17-8.69,3.94-12.85,1.51-3.53,2.73-7.19,4-10.82.11-.31-.26-.88-.56-1.19-.14-.16-.7-.12-.93,0-3.26,2.21-6.55,4.38-9.71,6.72-2.16,1.61-2.13,2.66-1.06,5.45,1.93,5,2.71,9.93-1.67,14.21-.36,2.27-2.3,2.33-3.87,2.48-4,.4-8,.19-11.64-2-.63-.38-.91-1.29-1.81-.23-1.28,1.51-3.16,2.79-5,2.13A9.08,9.08,0,0,1,67.05,53c-.82-2-2.53-3.71-2.08-6.16,0-.22-.54-.65-.9-.81a.92.92,0,0,0-.84.29c-1.43,2.06-3.14,4-4.11,6.28a7.55,7.55,0,0,1-3.78,4.21,9.48,9.48,0,0,1-6.37,0A9.14,9.14,0,0,1,44,51.74a14,14,0,0,1,1-12.72c3-5.29,6.28-10.34,10.87-14.52,4.85-4.4,5.78-4.1,11.35-1.72.85.37,1.66.8,2.48,1.24,1,.55,2,1.13,3,1.7a20,20,0,0,1,1.25-3A2.33,2.33,0,0,1,75.6,22c5-.68,6.52,3.27,5,7.84-1.82,5.39-4,10.67-6,16-.59,1.59-1.13,3.2-1.57,4.83a1.35,1.35,0,0,0,.5,1.21,1.33,1.33,0,0,0,1.28-.33c2.39-4.89,7.16-7.29,11-10.59.72-.62,1.53-1.12,2.3-1.68a2.13,2.13,0,0,0,.55-3,22.75,22.75,0,0,1-3.15-8.19A9.11,9.11,0,0,1,87,21.66c.65-1.11,1.94-1.83,2.76-2.87,2.65-3.35,5.87-3.64,9.55-2a2.6,2.6,0,0,0,1.39.24c1.37-.27,2.71-.7,4.09-1s2.61.45,3.69-.84c.29-.34,1.24-.14,1.89-.17,3.88-.22,5.47-1.36,6.66-4.87.16-.44-.19-1.23.06-1.45,1.24-1.1,1.08-4.29,3.2-3.47,1.48.58,3.54.24,4.69,2.09A5.67,5.67,0,0,1,126,10.4c.08,2.59.15,2.61,2.63,2.62s4.66,0,7,0c.66,0,1.46-.15,1.92.16a2.83,2.83,0,0,1,1.32,1.87,2.34,2.34,0,0,1-1.34,1.81c-1.62.27-3.32,0-5,.19-2,.25-4.33-1-6.08,1-3.21-.62-3.47,2.14-4.48,4-.37.66-.36,1.53-.72,2.19-4.67,8.61-6.53,18.26-10.07,27.29a50.5,50.5,0,0,0-2.16,7.58A34.74,34.74,0,0,1,107,66.7a.94.94,0,0,0,0,.5c.17,1.26-.05,3.31.59,3.62,2,1,1.53-1.55,2.23-2.36,3.06-3.54,4.86-7.93,7.19-12,1.25-2.16,3.21-4.08,3.83-6.38.67-2.49.07-5.29.17-7.95.21-5.73,2.67-10.57,6.25-14.87a39.75,39.75,0,0,1,4.94-4.94c2.06-1.73,4.18-3.65,7.19-1.52.57.39,1.68-.08,2.39.22,1.55.65,3.47.91,4.18,2.74.59,1.51,2.17,3.09.06,4.67-.5,5.75-3.61,10.49-6.07,15.46-1.17,2.35-2.76,4.25-6,4.15-1.86,0-2.47-1.38-3.63-2.18-.58-.39-1.52-.85-2-.63a2.59,2.59,0,0,0-1.29,1.86,9.32,9.32,0,0,0,.42,3.79c1.23,3.31,4.15,4.21,7.76,2.24a27.68,27.68,0,0,0,6.54-4.61c2.34-2.36,4-5.41,6.26-7.83,2.63-2.78,3.14-6.37,4.4-9.68,2.64-6.9,5.36-13.77,8.54-20.44,1.33-2.78,2.82-5.5,3.92-8.36.39-1,.74-1.35,1.64-1.19a7.41,7.41,0,0,1,5.09,3.25c.89,1.41-.09,2.9-.54,4.46-2.59,8.91-8.31,16.58-10.18,25.77-.17.86-1,1.57-1.34,2.43a6.43,6.43,0,0,0-.4,2.57c1.5.53.8-1.09,1.29-1.66a31.58,31.58,0,0,0,4.27-6.19c1.86-3.64,4.93-6.18,7.94-8.56,3.79-3,10.79-.05,12.3,4.72,1.38,4.32,1.33,5.37,0,10.67A15.62,15.62,0,0,0,185,42c-.33,1-.66,2-1,3-.33.27-.86.47-1,.8-1.33,4.14-4.23,7.08-7.27,10A7.68,7.68,0,0,1,169.66,58a18.47,18.47,0,0,1-8.28-2.94c-.95-.56-2.18-1.24-3.5.38-1.82,2.25-2.17,2-4.87.56-1.43-.79-2.65-1.61-3.09-3.43-.31-1.3-1.34-2.42-1.89-3.69-.34-.78-.43-1.16-1.05-.2a42.55,42.55,0,0,1-3.7,5.43,9.83,9.83,0,0,1-3.72,3c-4.25,1.72-10.62.93-14.28-2.32-1-.87-2.11-1.6-3.17-2.4a36.08,36.08,0,0,1-1.14,4c-.52,1.28-1.5,2.39-1.93,3.69-2.7,8-6.35,13.57-12,17.88ZM179,30a6.08,6.08,0,0,0,0-1.5,4.78,4.78,0,0,0-1.09-2c-.32-.24-1.25.2-1.82.5a7.28,7.28,0,0,0-1.93,1.35c-5.63,5.82-9,13.11-13,20-.74,1.28.52,3.72,2.05,4.58.49.28,1.11.87,1.48.75A10.27,10.27,0,0,0,168.4,52c2.34-2.15,5-4.16,5.67-7.57C178.07,40.22,177.4,34.5,179,30ZM70.05,28.54c-.28-.28-.6-.47-.73-.75-.94-1.89-3.06-2.6-4.36-1.1-1.75,2-4.13,3.2-5.75,5.44S55.72,36.68,54,38.94c-2.47,3.16-3.14,7-4.83,10.49-.82,1.68.44,3.29,1.34,4.28,1,1.15,1.87-.64,2.62-1.34A19.19,19.19,0,0,0,56,49.1c4.48-6.61,8.89-13.26,13.33-19.89A4.61,4.61,0,0,1,70.05,28.54ZM108.35,18c-1.33,0-2.65,0-4,0-.44,0-1.24.24-1.25.42-.2,2.13-2.22,1.77-3.37,2.56-3,2-5.68,4-7.2,7.69-1,2.39.18,3.91.53,5.79a1.93,1.93,0,0,0,1.59.26c3.91-3.12,8.41-5.25,12.77-7.55a8.09,8.09,0,0,0,3.8-3.86C113.93,18,114,18,108.35,18ZM92,45.49A13.29,13.29,0,0,0,92,44c-.18-1.27-1.2-1.73-2.43-1-1.74,1-3.47,2-5.12,3.13s-3,2.29-4.5,3.48c-1.08.87-1.34,3.23-.48,3.27,1.35.06,2.77,1.31,3.44,1,1.63-.77,3.52-.36,4.92-1.25C90.55,50.87,91.56,48,92,45.49ZM132.08,43l.92-1.39A35.9,35.9,0,0,0,137.5,32c.47-1.57,2.18-2.82,1.23-4.76-1.17,1-2.38,2-3.52,3.06-2.73,2.51-4.23,5.86-6,9C128.28,41.08,129.6,42.92,132.08,43Z" transform="translate(0 0)"/><path d="M184,45c.34-1,.67-2,1-3,1.79-2.17,2.08-5,3-7.47,1.49-4.22,2.68-8.53,5-12.41,1.16-1.92,2.38-2.59,4.28-2.1,2.44.64,3.72,2.06,3.72,4.23a7.9,7.9,0,0,1-.75,3.18c-2.48,5.8-4.68,11.72-6.78,17.67A47.58,47.58,0,0,0,192,52c0,.25.21.56.33.85a3,3,0,0,0,.7-.42c2.72-2.7,5.76-5.16,8-8.19a28.66,28.66,0,0,0,3.86-8.35,109.74,109.74,0,0,1,5.77-15.1c.89-1.81.27-2.86-1.62-2.72-3.37.24-6.85-.87-10.11.91a4.14,4.14,0,0,1-2.47,0c-1.17-.22-3.29.76-3.36-.76-.11-2.63,2.31-.55,3.45-1.17.38-.22,1,0,1.48,0,.92-.07,1.24-.91.65-1.74s-1.61-1.51-1.65-2.29a13.61,13.61,0,0,1,2.8-8.29c.93-1.36,2.47-.59,3.71-.61,2.11,0,2.89,2,4.09,3.26,1.07,1.09.11,2.37-.68,3.41s-1.78,2.25-2.62,3.42a16.65,16.65,0,0,0-1,1.75,20.47,20.47,0,0,0,2.35-.17c.91-.17,1.79-.5,2.69-.72,1.23-.31,2.56.52,3.75-.64A12.38,12.38,0,0,0,215,10c.24-.57.07-1.36.41-1.82.86-1.19,1.07-3.94,3-3,1.49.75,3.55.35,4.65,2.21.51.87,1.13,1.54,1,2.6,0,.33,0,.68,0,1-.19,1.39.14,2.15,1.81,2,2.16-.14,4.33,0,6.49,0,.67,0,1.34,0,2,0,1.58.11,3,1.18,2.67,2.15A2.4,2.4,0,0,1,234.42,17c-1.33-.07-2.67,0-4,0a33.6,33.6,0,0,0-4.49,0c-2.19.3-3.88,1-5.08,3.41A183.81,183.81,0,0,0,213,40.2c-1.28,3.63-2.58,7.27-3.64,11-1.25,4.33-2.23,8.73-3.37,13.09-.48,1.84-1.36,3.61-1,5.58.08.4.36,1,.66,1.07a1.43,1.43,0,0,0,1.25-.43c1.83-3.07,3.56-6.18,5.34-9.27,1.4-2.43,2.54-5.07,4.32-7.18A10,10,0,0,0,219,46.51,37.25,37.25,0,0,1,219,41a26.69,26.69,0,0,1,1-4.58c.91-3.38,2.93-6.2,5-8.89a32.66,32.66,0,0,1,5.65-5.62c1.8-1.4,3.82-3,6.45-1.32a6.75,6.75,0,0,0,2.32.41c4.25.77,5.3,3.08,4.62,7.61-.86,5.7-3.76,10.47-6.17,15.44-1.11,2.28-2.8,4.31-6.1,4-1.83-.16-2.45-1.46-3.55-2.34s-2.08-.88-2.77.26c-1.05,1.72-.63,5.37.77,6.76,1.74,1.72,6.29,2,8.39-.1s4.83-2.89,6.15-5.81c1.1-2.43,4.24-3.51,5.25-6.32.3-.85,1.33-1.46,2.06-2.14,1.16-1.09,2.35-2.16,3.53-3.23,1.53,2-.6,3.64-.93,5.36-.42,2.14-2.19,4.13-3.73,5.89-2,2.28-3.53,4.87-5.32,7.28a9.87,9.87,0,0,1-8.17,4.41A14.51,14.51,0,0,1,221.55,53c-1.49-1.71-1.34-.37-1.83.66-2,4.18-3.41,8.57-5.49,12.72A31.24,31.24,0,0,1,205,78h-4c-4.67-3.55-6.41-7.64-4.68-12.62a26.84,26.84,0,0,0,.7-3.67c.25-1.21.77-2.36.95-3.57.28-1.88.12-1.92-1.71-1.13-2,.89-4,1.63-6.15.06-3.53-2.52-6.58-5.17-6.12-10.05A18.86,18.86,0,0,0,184,45ZM236.5,27l-.71.65c-3.44,3.16-6.69,6.46-8.12,11.1A13.51,13.51,0,0,0,227,40.5a2.14,2.14,0,0,0,1.87,2.43,2.31,2.31,0,0,0,2-.63c2.11-4.44,4.07-9,6-13.46a1.67,1.67,0,0,0,0-1A3.25,3.25,0,0,0,236.5,27Z" transform="translate(0 0)"/><path class="cls-1" d="M184,45a18.86,18.86,0,0,1,0,2c-.46,4.88,2.59,7.53,6.12,10.05,2.2,1.57,4.12.83,6.15-.06,1.83-.79,2-.75,1.71,1.13-.18,1.21-.7,2.36-.95,3.57a26.84,26.84,0,0,1-.7,3.67c-1.73,5,0,9.07,4.68,12.62H107c5.68-4.31,9.33-9.83,12-17.88.43-1.3,1.41-2.41,1.93-3.69a36.08,36.08,0,0,0,1.14-4c1.06.8,2.18,1.53,3.17,2.4,3.66,3.25,10,4,14.28,2.32a9.83,9.83,0,0,0,3.72-3,42.55,42.55,0,0,0,3.7-5.43c.62-1,.71-.58,1.05.2.55,1.27,1.58,2.39,1.89,3.69.44,1.82,1.66,2.64,3.09,3.43,2.7,1.48,3.05,1.69,4.87-.56,1.32-1.62,2.55-.94,3.5-.38A18.47,18.47,0,0,0,169.66,58a7.68,7.68,0,0,0,6.08-2.22c3-2.9,5.94-5.84,7.27-10C183.12,45.46,183.65,45.26,184,45Z" transform="translate(0 0)"/><path d="M0,30c4.09-5.38,7.39-7.36,14.71-10.07a123.09,123.09,0,0,1,12.19-4.27c4.81-1.24,9.49-2.91,14.44-3.8A73.92,73.92,0,0,0,52.25,9.3,3.23,3.23,0,0,1,53.14,9c5.37.05,10.63-1.68,16-1A3.65,3.65,0,0,1,72,11.07c.17,1.49.17,3.12-1.44,3.85a13.32,13.32,0,0,1-4,1.06c-1.64.18-3.33-.09-5,.08s-3,.84-4.58.92c-4.3.22-8.4,1.57-12.65,2-1.31.14-1.83.92-2.31,2.08-2.62,6.23-5.6,12.3-8,18.62-1.56,4-3.09,8-4.31,12.17C29,54,28.63,56.11,28,58.19c-.91,3.07-.36,6.09,0,9.15.15,1.41-.82,2.08-2.12,1.62a12.17,12.17,0,0,1-6.56-5.49,8.11,8.11,0,0,1-.09-6.73c1.22-2.25.16-4.7,1.7-6.84,1.2-1.67,1.33-4.07,2.12-6.07,2.1-5.28,3.46-10.84,6-16q1-2.07,1.86-4.22a3.64,3.64,0,0,0-.07-1.34,6.79,6.79,0,0,1-1.06.5A79,79,0,0,0,12.87,29a38.39,38.39,0,0,0-5.6,3.32A7.44,7.44,0,0,0,4,38c0,.79-.2,1.25-1,.52S1,36.83,0,36Z" transform="translate(0 0)"/><path class="cls-1" d="M179,30c-1.58,4.47-.91,10.19-4.91,14.38-.69,3.41-3.33,5.42-5.67,7.57a10.27,10.27,0,0,1-3.73,1.75c-.37.12-1-.47-1.48-.75-1.53-.86-2.79-3.3-2.05-4.58,4-6.9,7.36-14.19,13-20A7.28,7.28,0,0,1,176.06,27c.57-.3,1.5-.74,1.82-.5a4.78,4.78,0,0,1,1.09,2A6.08,6.08,0,0,1,179,30Z" transform="translate(0 0)"/><path class="cls-1" d="M70.05,28.54a4.61,4.61,0,0,0-.72.67C64.89,35.84,60.48,42.49,56,49.1a19.19,19.19,0,0,1-2.91,3.27c-.75.7-1.58,2.49-2.62,1.34-.9-1-2.16-2.6-1.34-4.28C50.82,46,51.49,42.1,54,38.94c1.76-2.26,3.58-4.5,5.25-6.81s4-3.44,5.75-5.44c1.3-1.5,3.42-.79,4.36,1.1C69.45,28.07,69.77,28.26,70.05,28.54Z" transform="translate(0 0)"/><path class="cls-1" d="M108.35,18c5.68,0,5.58,0,2.9,5.33a8.09,8.09,0,0,1-3.8,3.86c-4.36,2.3-8.86,4.43-12.77,7.55a1.93,1.93,0,0,1-1.59-.26c-.35-1.88-1.51-3.4-.53-5.79,1.52-3.66,4.24-5.66,7.2-7.69,1.15-.79,3.17-.43,3.37-2.56,0-.18.81-.4,1.25-.42C105.7,18,107,18,108.35,18Z" transform="translate(0 0)"/><path class="cls-1" d="M92,45.49c-.45,2.54-1.46,5.38-4.18,7.09-1.4.89-3.29.48-4.92,1.25-.67.32-2.09-.93-3.44-1-.86,0-.6-2.4.48-3.27,1.47-1.19,2.94-2.41,4.5-3.48S87.83,44,89.57,43c1.23-.71,2.25-.25,2.43,1A13.29,13.29,0,0,1,92,45.49Z" transform="translate(0 0)"/><path class="cls-1" d="M132.08,43c-2.48-.09-3.8-1.93-2.83-3.69,1.73-3.15,3.23-6.5,6-9,1.14-1,2.35-2,3.52-3.06,1,1.94-.76,3.19-1.23,4.76a35.9,35.9,0,0,1-4.5,9.61Z" transform="translate(0 0)"/><path class="cls-1" d="M236.5,27a3.25,3.25,0,0,1,.45.81,1.67,1.67,0,0,1,0,1c-2,4.5-3.94,9-6,13.46a2.31,2.31,0,0,1-2,.63A2.14,2.14,0,0,1,227,40.5a13.51,13.51,0,0,1,.68-1.71c1.43-4.64,4.68-7.94,8.12-11.1Z" transform="translate(0 0)"/></svg>